<svg xmlns="http://www.w3.org/2000/svg" id="flag-icons-cv" viewBox="0 0 640 480" width="16" height="12"><defs/><path fill="#fff" d="M-0.296,219.02l641.644,0l0,193.64l-641.644,0z"/><path fill="#081873" d="M0.268,0l641.08,0l0,241.204l-641.08,0zm0.282,362.746l640.798,0l0,118.534l-640.798,0z"/><path fill="#de3929" d="M0.55,284.444l640.798,0l0,37.224l-640.798,0z"/><path fill="#ffce08" d="M413.68,309.73l6.298,19.176l20.022,0l-16.356,11.938l6.204,19.176l-16.356,-11.844l-16.356,11.938l6.204,-19.27l-16.356,-11.938l20.304,0zm0,-74.354l6.298,19.27l20.022,0l-16.356,11.844l6.204,19.27l-16.356,-11.938l-16.356,11.938l6.204,-19.27l-16.356,-11.844l20.304,0zm-215.072,79.806l6.204,19.27l20.21,0l-16.262,12.032l6.298,19.176l-16.356,-11.844l-16.356,11.844l6.204,-19.176l-16.356,-11.938l20.21,0zm170.61,-138.274l6.298,19.176l20.304,0l-16.356,11.938l6.204,19.27l-16.356,-11.938l-16.356,11.938l6.298,-19.27l-16.45,-11.938l20.304,0zm-66.74,-23.312l6.298,19.27l20.21,0l-16.356,11.844l6.204,19.27l-16.356,-11.844l-16.356,11.844l6.298,-19.27l-16.356,-11.844l20.116,0zm70.97,221.652l6.204,19.176l20.21,0l-16.262,11.938l6.298,19.27l-16.356,-11.938l-16.45,11.938l6.298,-19.27l-16.356,-11.938l20.21,0zm-70.97,19.928l6.298,19.27l20.21,0l-16.356,11.844l6.298,19.27l-16.45,-11.938l-16.356,11.938l6.298,-19.27l-16.356,-11.844l20.116,0zm-105.75,-159.706l6.204,19.27l20.304,0l-16.45,11.844l6.298,19.27l-16.356,-11.938l-16.356,11.938l6.204,-19.27l-16.356,-11.844l20.21,0zm38.822,-59.878l6.298,19.27l20.21,0l-16.356,11.844l6.298,19.27l-16.45,-11.938l-16.356,11.938l6.298,-19.27l-16.356,-11.844l20.304,0zm3.29,199.656l6.204,19.176l20.116,0l-16.356,11.938l6.204,19.27l-16.168,-12.032l-16.356,11.938l6.298,-19.27l-16.356,-11.938l20.21,0z"/></svg>
