<svg xmlns="http://www.w3.org/2000/svg" id="flag-icons-in" viewBox="0 0 640 480" width="16" height="12"><path fill="#f93" d="M0,0h640v160H0z"/><path fill="#fff" d="M0,160h640v160H0z"/><path fill="#128807" d="M0,320h640v160H0z"/><g transform="matrix(3.2 0 0 3.2 320 240)"><circle r="20" fill="#008"/><circle r="17.5" fill="#fff"/><circle r="3.5" fill="#008"/><g id="in-d"><g id="in-c"><g id="in-b"><g id="in-a" fill="#008"><circle r=".9" transform="rotate(7.5 -8.8 133.5)"/><path d="M0,17.5L0.6,7L0,2l-0.6,5z"/></g><g fill="#008" transform="matrix(0.9659258262890683 0.25881904510252074 -0.25881904510252074 0.9659258262890683 0 0)"><circle r=".9" transform="rotate(7.5 -8.8 133.5)"/><path d="M0,17.5L0.6,7L0,2l-0.6,5z"/></g></g><g transform="matrix(0.8660254037844387 0.49999999999999994 -0.49999999999999994 0.8660254037844387 0 0)"><g fill="#008"><circle r=".9" transform="rotate(7.5 -8.8 133.5)"/><path d="M0,17.5L0.6,7L0,2l-0.6,5z"/></g><g fill="#008" transform="matrix(0.9659258262890683 0.25881904510252074 -0.25881904510252074 0.9659258262890683 0 0)"><circle r=".9" transform="rotate(7.5 -8.8 133.5)"/><path d="M0,17.5L0.6,7L0,2l-0.6,5z"/></g></g></g><g transform="matrix(0.5000000000000001 0.8660254037844386 -0.8660254037844386 0.5000000000000001 0 0)"><g><g fill="#008"><circle r=".9" transform="rotate(7.5 -8.8 133.5)"/><path d="M0,17.5L0.6,7L0,2l-0.6,5z"/></g><g fill="#008" transform="matrix(0.9659258262890683 0.25881904510252074 -0.25881904510252074 0.9659258262890683 0 0)"><circle r=".9" transform="rotate(7.5 -8.8 133.5)"/><path d="M0,17.5L0.6,7L0,2l-0.6,5z"/></g></g><g transform="matrix(0.8660254037844387 0.49999999999999994 -0.49999999999999994 0.8660254037844387 0 0)"><g fill="#008"><circle r=".9" transform="rotate(7.5 -8.8 133.5)"/><path d="M0,17.5L0.6,7L0,2l-0.6,5z"/></g><g fill="#008" transform="matrix(0.9659258262890683 0.25881904510252074 -0.25881904510252074 0.9659258262890683 0 0)"><circle r=".9" transform="rotate(7.5 -8.8 133.5)"/><path d="M0,17.5L0.6,7L0,2l-0.6,5z"/></g></g></g></g><g transform="matrix(-0.4999999999999998 0.8660254037844387 -0.8660254037844387 -0.4999999999999998 0 0)"><g><g><g fill="#008"><circle r=".9" transform="rotate(7.5 -8.8 133.5)"/><path d="M0,17.5L0.6,7L0,2l-0.6,5z"/></g><g fill="#008" transform="matrix(0.9659258262890683 0.25881904510252074 -0.25881904510252074 0.9659258262890683 0 0)"><circle r=".9" transform="rotate(7.5 -8.8 133.5)"/><path d="M0,17.5L0.6,7L0,2l-0.6,5z"/></g></g><g transform="matrix(0.8660254037844387 0.49999999999999994 -0.49999999999999994 0.8660254037844387 0 0)"><g fill="#008"><circle r=".9" transform="rotate(7.5 -8.8 133.5)"/><path d="M0,17.5L0.6,7L0,2l-0.6,5z"/></g><g fill="#008" transform="matrix(0.9659258262890683 0.25881904510252074 -0.25881904510252074 0.9659258262890683 0 0)"><circle r=".9" transform="rotate(7.5 -8.8 133.5)"/><path d="M0,17.5L0.6,7L0,2l-0.6,5z"/></g></g></g><g transform="matrix(0.5000000000000001 0.8660254037844386 -0.8660254037844386 0.5000000000000001 0 0)"><g><g fill="#008"><circle r=".9" transform="rotate(7.5 -8.8 133.5)"/><path d="M0,17.5L0.6,7L0,2l-0.6,5z"/></g><g fill="#008" transform="matrix(0.9659258262890683 0.25881904510252074 -0.25881904510252074 0.9659258262890683 0 0)"><circle r=".9" transform="rotate(7.5 -8.8 133.5)"/><path d="M0,17.5L0.6,7L0,2l-0.6,5z"/></g></g><g transform="matrix(0.8660254037844387 0.49999999999999994 -0.49999999999999994 0.8660254037844387 0 0)"><g fill="#008"><circle r=".9" transform="rotate(7.5 -8.8 133.5)"/><path d="M0,17.5L0.6,7L0,2l-0.6,5z"/></g><g fill="#008" transform="matrix(0.9659258262890683 0.25881904510252074 -0.25881904510252074 0.9659258262890683 0 0)"><circle r=".9" transform="rotate(7.5 -8.8 133.5)"/><path d="M0,17.5L0.6,7L0,2l-0.6,5z"/></g></g></g></g><g transform="matrix(-0.4999999999999998 -0.8660254037844387 0.8660254037844387 -0.4999999999999998 0 0)"><g><g><g fill="#008"><circle r=".9" transform="rotate(7.5 -8.8 133.5)"/><path d="M0,17.5L0.6,7L0,2l-0.6,5z"/></g><g fill="#008" transform="matrix(0.9659258262890683 0.25881904510252074 -0.25881904510252074 0.9659258262890683 0 0)"><circle r=".9" transform="rotate(7.5 -8.8 133.5)"/><path d="M0,17.5L0.6,7L0,2l-0.6,5z"/></g></g><g transform="matrix(0.8660254037844387 0.49999999999999994 -0.49999999999999994 0.8660254037844387 0 0)"><g fill="#008"><circle r=".9" transform="rotate(7.5 -8.8 133.5)"/><path d="M0,17.5L0.6,7L0,2l-0.6,5z"/></g><g fill="#008" transform="matrix(0.9659258262890683 0.25881904510252074 -0.25881904510252074 0.9659258262890683 0 0)"><circle r=".9" transform="rotate(7.5 -8.8 133.5)"/><path d="M0,17.5L0.6,7L0,2l-0.6,5z"/></g></g></g><g transform="matrix(0.5000000000000001 0.8660254037844386 -0.8660254037844386 0.5000000000000001 0 0)"><g><g fill="#008"><circle r=".9" transform="rotate(7.5 -8.8 133.5)"/><path d="M0,17.5L0.6,7L0,2l-0.6,5z"/></g><g fill="#008" transform="matrix(0.9659258262890683 0.25881904510252074 -0.25881904510252074 0.9659258262890683 0 0)"><circle r=".9" transform="rotate(7.5 -8.8 133.5)"/><path d="M0,17.5L0.6,7L0,2l-0.6,5z"/></g></g><g transform="matrix(0.8660254037844387 0.49999999999999994 -0.49999999999999994 0.8660254037844387 0 0)"><g fill="#008"><circle r=".9" transform="rotate(7.5 -8.8 133.5)"/><path d="M0,17.5L0.6,7L0,2l-0.6,5z"/></g><g fill="#008" transform="matrix(0.9659258262890683 0.25881904510252074 -0.25881904510252074 0.9659258262890683 0 0)"><circle r=".9" transform="rotate(7.5 -8.8 133.5)"/><path d="M0,17.5L0.6,7L0,2l-0.6,5z"/></g></g></g></g></g></svg>
