<svg xmlns="http://www.w3.org/2000/svg" id="flag-icons-kp" viewBox="0 0 640 480" width="16" height="12"><defs/><path fill="#fff" d="M-0.018,479.523l-0.094,-479.154l640.061,0l0,479.154l-639.967,0z"/><path fill="#000" d="M-0.018,479.992l0,-0.938l639.967,0l0,0.938zm-0.094,-479.998l640.061,0l0,0.844l-640.06,0z"/><path fill="#3e5698" d="M-0.018,479.523l-0.017,-86.735l639.984,0l0,86.735l-639.967,0z"/><path fill="#c60000" d="M-0.039,372.722l-0.052,-265.551l640.04,0l0,265.551l-639.988,0z"/><path fill="#3e5698" d="M-0.095,87.104l-0.017,-86.641l640.061,0l0,86.641l-640.044,0z"/><path fill="#fff" d="M303.228,239.946l0,0.047l0,0.047c-0.052,59.499 -49.729,107.739 -111.209,107.739c-61.512,0 -111.209,-48.29 -111.209,-107.833c0,-59.543 49.697,-107.646 111.209,-107.646c61.48,0 111.157,48.147 111.209,107.646z"/><path fill="#c40000" d="M160.044,253.636l-53.448,-38.163l66.576,-0.188l21.285,-62.262l19.785,61.981l66.575,-0.375l-54.291,38.632l19.972,61.981l-53.448,-38.164l-54.385,38.726z"/></svg>
