<svg xmlns="http://www.w3.org/2000/svg" id="flag-icons-nr" viewBox="0 0 640 480" width="16" height="12"><defs/><path fill="#002170" d="M0.019,0l640.031,0l0,480l-640.031,0z"/><path fill="#ffb20d" d="M0.019,219.469l640.031,0l0,41.156l-640.031,0z"/><path fill="#fff" d="M202.988,410.625l-30.938,-30.937l-9.844,42.562l-11.25,-42.188l-29.906,31.876l11.344,-42.188l-41.719,12.656l30.938,-30.937l-42.563,-9.938l42.188,-11.25l-31.875,-29.812l42.187,11.25l-12.75,-41.719l30.938,30.938l9.937,-42.563l11.25,42.187l29.813,-31.874l-11.25,42.187l41.718,-12.656l-30.937,30.937l42.562,9.844l-42.187,11.25l31.875,30l-42.188,-11.438z"/></svg>
